v 0.0000013368392 0.05256322771311 -0.76019555330276
v 0.0000013368392 0.11222247779369 -0.45635217428207
v -0.12220913916826 0.05067815259099 -0.58875012397766
v -0.20398880541325 0.04942394420505 -0.44541615247726
v 0.12221179902554 0.05067815259099 -0.58875012397766
v 0.2039914727211 0.04942394420505 -0.44541615247726
v 0.26347741484642 0.04824706539512 -0.29762509465218
v 0.12876155972481 0.11752174049616 -0.11269932985306
v 0.0000013368392 0.15427230298519 -0.11398561298847
v 0.32892751693726 0.04989857599139 -0.05920009315014
v 0.35960906744003 0.04712679237127 0.1375558078289
v -0.19077534973621 0.11755118519068 0.40583550930023
v 0.0000013368392 0.15300978720188 0.44327363371849
v 0.19077801704407 0.11755118519068 0.40583556890488
v 0.2971715927124 0.08026532828808 0.37199953198433
v 0.37600177526474 0.04458377882838 0.33847278356552
v -0.12875889241695 0.11752174049616 -0.11269932985306
v -0.29716891050339 0.08026532828808 0.37199956178665
v -0.26347473263741 0.04824706539512 -0.29762509465218
v -0.32892480492592 0.04989857599139 -0.05920009315014
v -0.35960638523102 0.04712679237127 0.1375558078289
v -0.37599909305573 0.04458377510309 0.33847278356552
v -0.09013049304485 0.13115654885769 -0.52508169412613
v -0.11851797252893 0.10545061528683 -0.56902277469635
v -0.19072613120079 0.10248077660799 -0.44064509868622
v -0.12526752054691 0.10708967596292 -0.41205078363419
v -0.14630238711834 0.13026890158653 -0.417545825243
v -0.19770461320877 0.12903466820717 -0.28781744837761
v -0.24908350408077 0.10112001001835 -0.29465395212173
v -0.31371787190437 0.1010874658823 -0.05631998181343
v -0.3420837521553 0.10010265558958 0.13490378856659
v -0.36266303062439 0.10185242444277 0.32940602302551
v -0.29858195781708 0.13014701008797 0.35884141921997
v -0.18886896967888 0.16326031088829 0.3975917994976
v 0.0000013368392 0.1989776045084 0.4322144985199
v -0.17293903231621 0.10978794842958 -0.28698918223381
v -0.25629803538322 0.12658068537712 -0.06113643199205
v -0.28772789239883 0.12626232206821 0.13112440705299
v -0.30157142877579 0.1258369833231 0.28857973217964
v -0.18467962741852 0.17167900502682 0.33472463488579
v -0.27678111195564 0.10041721910238 0.27872675657272
v -0.18407946825027 0.14674709737301 0.31677103042603
v 0.0000013368392 0.19132809340954 0.35198959708214
v -0.06303998827934 0.18430809676647 0.28023654222488
v 0.0000013368392 0.19736249744892 0.28995046019554
v 0.0000013368392 0.21415531635284 0.28631293773651
v 0.06304267048836 0.18430809676647 0.28023654222488
v -0.19016674160957 0.1623163819313 0.13432036340237
v -0.24023725092411 0.13292650878429 0.157470241189
v -0.26781311631203 0.10623700171709 0.13467372953892
v -0.23394228518009 0.10869874805212 -0.06228553876281
v -0.14718580245972 0.16823729872704 -0.06428693234921
v -0.10308934003115 0.16451381146908 -0.28404089808464
v 0.0000013368392 0.22620441019535 -0.06324468553066
v -0.16331285238266 0.17538820207119 0.0692445486784
v -0.1671167165041 0.18400879204273 0.0922696441412
v 0.0000013368392 0.22865000367165 0.01747320219874
v 0.0000013368392 0.22443577647209 0.14030931890011
v 0.16711938381195 0.18400879204273 0.09226965904236
v 0.16331551969051 0.17538820207119 0.0692445486784
v 0.14718846976757 0.16823729872704 -0.06428693234921
v -0.21548688411713 0.15172462165356 0.13443557918072
v -0.22306850552559 0.13918089866638 0.1344701051712
v 0.2230711877346 0.13918089866638 0.1344701051712
v 0.21548955142498 0.15172462165356 0.13443559408188
v 0.19016940891743 0.1623163819313 0.13432034850121
v 0.24023994803429 0.13292650878429 0.157470241189
v -0.06488613039255 0.15871395170689 -0.40700870752335
v 0.0000013368392 0.20049305260181 -0.27470424771309
v 0.10309202224016 0.16451381146908 -0.28404089808464
v 0.17294169962406 0.10978794842958 -0.28698918223381
v 0.23394498229027 0.10869874805212 -0.0622855424881
v 0.26781579852104 0.10623700171709 0.13467374444008
v 0.27678382396698 0.10041721910238 0.27872675657272
v 0.1793080419302 0.16085195541382 0.17992307245731
v 0.18408213555813 0.14674709737301 0.31677106022835
v 0.13357426226139 0.17405281960964 0.192811191082
v 0.11499107629061 0.17183624207973 0.25954169034958
v -0.06989399343729 0.10867115110159 -0.51504778862
v 0.0000013368392 0.14505207538605 -0.52324950695038
v 0.0000013368392 0.14508402347565 -0.52316176891327
v 0.06488880515099 0.15871395170689 -0.40700870752335
v 0.0000013368392 0.17445679008961 -0.40448319911957
v 0.12527018785477 0.10708967596292 -0.41205078363419
v 0.14630505442619 0.13026890158653 -0.417545825243
v 0.19770728051662 0.12903466820717 -0.28781744837761
v 0.19072879850864 0.10248077660799 -0.44064509868622
v 0.24908620119095 0.10112001001835 -0.29465395212173
v 0.0000013368392 0.13422693312168 -0.63371986150742
v 0.0000013368392 0.11411572247744 -0.59966170787811
v 0.06989666819572 0.10867115110159 -0.51504778862
v 0.09013316780329 0.13115654885769 -0.52508169412613
v 0.11852063983679 0.10545061528683 -0.56902277469635
v 0.0000013368392 0.1134133040905 -0.71814602613449
v 0.31372058391571 0.1010874658823 -0.05631998181343
v 0.34208646416664 0.10010265558958 0.13490378856659
v 0.36266574263573 0.10185242444277 0.32940605282784
v 0.29858464002609 0.13014701008797 0.35884141921997
v 0.18887163698673 0.16326031088829 0.39759182929993
v 0.30157414078712 0.1258369833231 0.28857973217964
v 0.28773060441017 0.12626232206821 0.13112442195415
v 0.25630074739456 0.12658068537712 -0.06113643944263
v 0.18468229472637 0.17167900502682 0.33472463488579
v 0.0000013368392 0.20254798233509 0.37124684453011
v 0.05989973247051 0.19896079599857 0.27702137827873
v 0.10973642021418 0.19266733527184 0.21113555133343
v 0.17116449773312 0.17886851727962 0.13423384726048
v 0.1840613335371 0.16940675675869 0.13429257273674
v 0.17422257363796 0.17254717648029 0.17744705080986
v 0.13000896573067 0.1843020170927 0.19170771539211
v 0.11372405290604 0.17799933254719 0.21181669831276
v 0.108891710639 0.18696464598179 0.25928285717964
v -0.17930537462234 0.16085195541382 0.17992307245731
v -0.18405866622925 0.16940675675869 0.13429257273674
v -0.17116183042526 0.17886851727962 0.13423384726048
v -0.10973375290632 0.19266733527184 0.21113555133343
v -0.05989705398679 0.19896079599857 0.27702137827873
v -0.11498840898275 0.17183624207973 0.25954169034958
v -0.13357159495354 0.17405281960964 0.192811191082
v -0.11372138559818 0.17799933254719 0.21181669831276
v -0.13000631332397 0.1843020170927 0.19170771539211
v -0.17421990633011 0.17254717648029 0.1774470359087
v -0.10888904333115 0.18696464598179 0.25928285717964

vn -0.56707340478897 -0.7193888425827 -0.40113273262978
vn 0 -0.98808968067169 0.15387922525406
vn 0 -0.39987763762474 -0.91656851768494
vn -0.6275440454483 -0.71420204639435 -0.31000629067421
vn 0.56707340478897 -0.7193888425827 -0.40113273262978
vn 0.6275440454483 -0.71420204639435 -0.31000629067421
vn 0.66242730617523 -0.71880412101746 -0.21097546815872
vn -0.3028556406498 -0.94978737831116 0.07862809300423
vn 0 -0.99729287624359 0.07353210449219
vn 0.68947786092758 -0.70719683170319 -0.15650206804276
vn 0.69919812679291 -0.71104204654694 -0.07443863898516
vn 0 -0.51891452074051 0.85482615232468
vn -0.05240714177489 -0.60097897052765 0.79754483699799
vn 0.05240714177489 -0.60097897052765 0.79754483699799
vn 0.08965773135424 -0.59760361909866 0.79676312208176
vn 0.61780768632889 -0.64571511745453 0.4487379193306
vn 0.3028556406498 -0.94978737831116 0.07862809300423
vn -0.08965773135424 -0.59760361909866 0.79676312208176
vn -0.66242730617523 -0.71880412101746 -0.21097546815872
vn -0.68947786092758 -0.70719683170319 -0.15650206804276
vn -0.69919812679291 -0.71104204654694 -0.07443863898516
vn -0.61780768632889 -0.64571511745453 0.4487379193306
vn -0.72204560041428 0.60482448339462 -0.33591291308403
vn -0.66599291563034 0.60814708471298 -0.43198445439339
vn 0.07265872508287 0.99425268173218 0.07862767577171
vn 0.12106474488974 0.99117463827133 0.0540010035038
vn 0.06681360304356 0.99714148044586 0.03528183326125
vn 0.06312540918589 0.99769401550293 0.02493766322732
vn -0.74892526865006 0.61573439836502 -0.24491246044636
vn -0.74497663974762 0.64878815412521 -0.15518914163113
vn -0.75453889369965 0.65047538280487 -0.08690713346004
vn -0.75319862365723 0.56835210323334 0.33116114139557
vn -0.4603251516819 0.72311365604401 0.51498287916183
vn -0.33600527048111 0.6983859539032 0.63194739818573
vn 0 0.76304006576538 0.64635121822357
vn 0.02484450675547 0.99943667650223 0.02256318740547
vn 0.10818775743246 0.99390864372253 0.0210000500083
vn 0.1463149189949 0.98889136314392 0.02618793398142
vn -0.09959513694048 0.97335731983185 -0.20653413236141
vn -0.17075695097446 0.91016203165054 -0.37742161750793
vn 0.16590867936611 0.9355137348175 -0.31191083788872
vn -0.17659988999367 0.87206155061722 -0.45642212033272
vn 0 0.96226918697357 -0.27209919691086
vn -0.34188014268875 0.73897987604141 0.58054000139236
vn 0 0.74067634344101 0.67186200618744
vn 0 0.76448637247086 0.64463984966278
vn 0.34188014268875 0.73897987604141 0.58054000139236
vn -0.5854178071022 0.80985963344574 -0.03759448975325
vn -0.54394680261612 0.82129538059235 0.1720342040062
vn 0.07212591171265 0.99735629558563 0.00884386152029
vn 0.05565657839179 0.99825584888458 0.01968761533499
vn -0.47482484579086 0.87327271699905 -0.10925283282995
vn -0.47592288255692 0.86493653059006 -0.15931805968285
vn 0 0.99586778879166 -0.09081469476223
vn -0.57851219177246 0.77976649999619 -0.23934879899025
vn -0.52548283338547 0.83899128437042 -0.14128504693508
vn 0 0.99998009204864 -0.00631257100031
vn 0 0.99872720241547 0.05043792724609
vn 0.52548283338547 0.83899128437042 -0.14128504693508
vn 0.57851219177246 0.77976649999619 -0.23934879899025
vn 0.47482484579086 0.87327271699905 -0.10925283282995
vn -0.63857531547546 0.76217156648636 -0.10637712478638
vn -0.68835586309433 0.66460543870926 -0.29063010215759
vn 0.68835586309433 0.66460543870926 -0.29063010215759
vn 0.63857531547546 0.76217156648636 -0.10637712478638
vn 0.54394680261612 0.82129538059235 0.1720342040062
vn 0.5854178071022 0.80985963344574 -0.03759448975325
vn -0.43335273861885 0.8667054772377 -0.24703638255596
vn 0 0.99001377820969 -0.1409707069397
vn 0.47592288255692 0.86493653059006 -0.15931805968285
vn -0.02484450675547 0.99943667650223 0.02256318740547
vn -0.05565657839179 0.99825584888458 0.01968761533499
vn -0.07212591171265 0.99735629558563 0.00884386152029
vn -0.16590867936611 0.9355137348175 -0.31191083788872
vn 0.5394481420517 0.80123454332352 0.25888010859489
vn 0.17659988999367 0.87206155061722 -0.45642212033272
vn 0.4641372859478 0.66345512866974 0.5868593454361
vn 0.49238687753677 0.83580142259598 0.24288086593151
vn 0.08353194594383 0.99366450309753 0.0751881301403
vn 0 0.92587667703629 -0.37782591581345
vn 0 0.94590377807617 -0.32444736361504
vn 0.43335273861885 0.8667054772377 -0.24703638255596
vn 0 0.97610831260681 -0.21728450059891
vn -0.06681360304356 0.99714148044586 0.03528183326125
vn -0.12106474488974 0.99117463827133 0.0540010035038
vn -0.06312540918589 0.99769401550293 0.02493766322732
vn 0.72204560041428 0.60482448339462 -0.33591291308403
vn 0.74892526865006 0.61573439836502 -0.24491246044636
vn 0 0.99748289585114 -0.07090725749731
vn 0 0.95144611597061 0.30781528353691
vn -0.08353194594383 0.99366450309753 0.0751881301403
vn -0.07265872508287 0.99425268173218 0.07862767577171
vn 0.66599291563034 0.60814708471298 -0.43198445439339
vn 0 0.73784518241882 -0.67497003078461
vn 0.74497663974762 0.64878815412521 -0.15518914163113
vn 0.75453889369965 0.65047538280487 -0.08690713346004
vn 0.75319862365723 0.56835210323334 0.33116114139557
vn 0.4603251516819 0.72311365604401 0.51498287916183
vn 0.33600527048111 0.6983859539032 0.63194739818573
vn 0.09959513694048 0.97335731983185 -0.20653413236141
vn -0.1463149189949 0.98889136314392 0.02618793398142
vn -0.10818775743246 0.99390864372253 0.0210000500083
vn 0.17075695097446 0.91016203165054 -0.37742161750793
vn 0 0.98235934972763 -0.18700297176838
vn 0.32669535279274 0.70429819822311 0.63026517629623
vn 0.57863622903824 0.79235917329788 0.19325377047062
vn 0.44154006242752 0.89408028125763 0.07525150477886
vn 0.7043309211731 0.70786219835281 0.05337639153004
vn 0.57591676712036 0.66516840457916 0.47525870800018
vn 0.62504225969315 0.530009329319 0.57307261228561
vn 0.73486328125 0.60923492908478 0.29800790548325
vn 0.62398529052734 0.60470348596573 0.49495059251785
vn -0.5394481420517 0.80123454332352 0.25888010859489
vn -0.7043309211731 0.70786219835281 0.05337639153004
vn -0.44154006242752 0.89408028125763 0.07525150477886
vn -0.57863622903824 0.79235917329788 0.19325377047062
vn -0.32669535279274 0.70429819822311 0.63026517629623
vn -0.49238687753677 0.83580142259598 0.24288086593151
vn -0.4641372859478 0.66345512866974 0.5868593454361
vn -0.73486328125 0.60923492908478 0.29800790548325
vn -0.62504225969315 0.530009329319 0.57307261228561
vn -0.57591676712036 0.66516840457916 0.47525870800018
vn -0.62398529052734 0.60470348596573 0.49495059251785

vt 0.91641104221344 0.40261995792389 0
vt 0.84986221790314 0.39899241924286 0
vt 0.93313431739807 0.25822305679321 0
vt 0.89843213558197 0.51320731639862 0
vt 0.84984683990479 0.39901924133301 0
vt 0.87422680854797 0.61447596549988 0
vt 0.79066336154938 0.62861043214798 0
vt 0.75867319107056 0.55940419435501 0
vt 0.8280480504036 0.7625977396965 0
vt 0.78446131944656 0.8738973736763 0
vt 0.61864960193634 0.82115185260773 0
vt 0.67139542102814 0.9112389087677 0
vt 0.71072918176651 0.94708049297333 0
vt 0.73768258094788 0.97870677709579 0
vt 0.84981602430344 0.39907312393188 0
vt 0.7885594367981 0.15163481235504 0
vt 0.87092798948288 0.12175488471985 0
vt 0.86561363935471 0.18662643432617 0
vt 0.77814567089081 0.09373331069946 0
vt 0.79847013950348 0.21516895294189 0
vt 0.80597364902496 0.24159955978394 0
vt 0.72295385599136 0.25996351242065 0
vt 0.70202040672302 0.19894826412201 0
vt 0.68747460842133 0.14546084403992 0
vt 0.55765676498413 0.27126896381378 0
vt 0.57394462823868 0.31733548641205 0
vt 0.46292704343796 0.40703177452087 0
vt 0.48497828841209 0.44160652160645 0
vt 0.38197594881058 0.57980465888977 0
vt 0.40472412109375 0.59238874912262 0
vt 0.39262428879738 0.67674362659454 0
vt 0.41954380273819 0.66568267345428 0
vt 0.44641152024269 0.7857204079628 0
vt 0.42060771584511 0.79961949586868 0
vt 0.48440152406693 0.97830933332443 0
vt 0.5072358250618 0.96308535337448 0
vt 0.73433721065521 0.28569793701172 0
vt 0.60335576534271 0.36945080757141 0
vt 0.50965332984924 0.48368740081787 0
vt 0.4467348754406 0.60803329944611 0
vt 0.47124606370926 0.74238836765289 0
vt 0.45768004655838 0.61665278673172 0
vt 0.47752171754837 0.72516232728958 0
vt 0.53400760889053 0.90458589792252 0
vt 0.53974342346191 0.8029790520668 0
vt 0.5602411031723 0.8630079627037 0
vt 0.56177920103073 0.86057013273239 0
vt 0.52069854736328 0.5517253279686 0
vt 0.55237030982971 0.58350312709808 0
vt 0.5168468952179 0.50420951843262 0
vt 0.61456441879272 0.3905656337738 0
vt 0.65339291095734 0.48176109790802 0
vt 0.76339989900589 0.36598992347717 0
vt 0.70898652076721 0.61820924282074 0
vt 0.59129023551941 0.56325054168701 0
vt 0.57776802778244 0.57881665229797 0
vt 0.67509430646896 0.67551404237747 0
vt 0.62351733446121 0.76272022724152 0
vt 0.54078632593155 0.55764585733414 0
vt 0.53731769323349 0.54990339279175 0
vt 0.8301362991333 0.31224739551544 0
vt 0.79776704311371 0.46813142299652 0
vt 0.53786981105804 0.62907320261002 0
vt 0.55026149749756 0.67872875928879 0
vt 0.52869802713394 0.74299693107605 0
vt 0.87011861801147 0.21516788005829 0
vt 0.9020249247551 0.27068853378296 0
vt 0.90199089050293 0.27076470851898 0
vt 0.85376214981079 0.36765146255493 0
vt 0.94532030820847 0.17627906799316 0
vt 0.93164253234863 0.20470809936523 0
vt 0.87266981601715 0.06213998794556 0
vt 0.97815531492233 0.09490668773651 0
vt 0.99095630645752 0.02582633495331 0
vt 0.52746772766113 0.91905552148819 0
vt 0.54231786727905 0.80348098278046 0
vt 0.5514554977417 0.7132476568222 0
vt 0.56106507778168 0.60291117429733 0
vt 0.55516475439072 0.58974075317383 0
vt 0.54128736257553 0.6318524479866 0
vt 0.55209785699844 0.68107730150223 0
vt 0.54965460300446 0.71011513471603 0
vt 0.53114241361618 0.74815529584885 0

f 1/3/3 2/2/2 3/1/1
f 2/2/2 4/4/4 3/1/1
f 1/3/3 5/1/5 2/5/2
f 5/1/5 6/4/6 2/5/2
f 6/4/6 7/6/7 2/5/2
f 7/6/7 8/7/8 2/5/2
f 2/5/2 8/7/8 9/8/9
f 7/6/7 10/9/10 8/7/8
f 10/9/10 11/10/11 8/7/8
f 12/12/13 9/8/9 13/11/12
f 13/11/12 9/8/9 14/12/14
f 9/8/9 8/7/8 14/12/14
f 14/12/14 8/7/8 15/13/15
f 8/7/8 11/10/11 15/13/15
f 15/13/15 11/10/11 16/14/16
f 2/15/2 9/8/9 17/7/17
f 9/8/9 12/12/13 17/7/17
f 17/7/17 12/12/13 18/13/18
f 4/4/4 2/15/2 19/6/19
f 2/15/2 17/7/17 19/6/19
f 19/6/19 17/7/17 20/9/20
f 20/9/20 17/7/17 21/10/21
f 17/7/17 18/13/18 21/10/21
f 21/10/21 18/13/18 22/14/22
f 23/18/25 24/17/24 25/16/23
f 24/17/24 4/19/4 25/16/23
f 26/21/27 23/18/25 27/20/26
f 23/18/25 25/16/23 27/20/26
f 27/20/26 25/16/23 28/22/28
f 28/22/28 25/16/23 29/23/29
f 25/16/23 4/19/4 29/23/29
f 4/19/4 19/24/19 29/23/29
f 19/24/19 20/25/20 29/23/29
f 29/23/29 20/25/20 30/26/30
f 20/25/20 21/27/21 30/26/30
f 30/26/30 21/27/21 31/28/31
f 21/27/21 22/29/22 31/28/31
f 31/28/31 22/29/22 32/30/32
f 22/29/22 18/31/18 32/30/32
f 32/30/32 18/31/18 33/32/33
f 33/32/33 18/31/18 34/33/34
f 18/31/18 12/34/13 34/33/34
f 12/34/13 13/35/12 34/33/34
f 34/33/34 13/35/12 35/36/35
f 27/20/26 28/22/28 36/37/36
f 36/37/36 28/22/28 37/38/37
f 28/22/28 29/23/29 37/38/37
f 29/23/29 30/26/30 37/38/37
f 37/38/37 30/26/30 38/39/38
f 30/26/30 31/28/31 38/39/38
f 38/39/38 31/28/31 39/40/39
f 31/28/31 32/30/32 39/40/39
f 32/30/32 33/32/33 39/40/39
f 33/32/33 34/33/34 39/40/39
f 34/33/34 40/41/40 39/40/39
f 39/40/39 40/41/40 41/42/41
f 41/42/41 40/41/40 42/43/42
f 40/41/40 43/44/43 42/43/42
f 42/43/42 43/44/43 44/45/44
f 43/44/43 45/46/45 44/45/44
f 44/45/44 45/46/45 46/47/46
f 45/46/45 47/45/47 46/47/46
f 48/49/49 49/48/48 41/42/41
f 49/48/48 50/50/50 41/42/41
f 41/42/41 50/50/50 39/40/39
f 39/40/39 50/50/50 38/39/38
f 50/50/50 51/51/51 38/39/38
f 38/39/38 51/51/51 37/38/37
f 37/38/37 51/51/51 36/37/36
f 51/51/51 52/52/52 36/37/36
f 36/37/36 52/52/52 53/53/53
f 53/53/53 52/52/52 54/54/54
f 52/52/52 55/55/55 54/54/54
f 55/55/55 56/56/56 54/54/54
f 54/54/54 56/56/56 57/57/57
f 56/56/56 58/58/58 57/57/57
f 58/58/58 59/56/59 57/57/57
f 57/57/57 59/56/59 54/54/54
f 59/56/59 60/55/60 54/54/54
f 60/55/60 61/52/61 54/54/54
f 49/48/48 48/49/49 62/59/62
f 48/49/49 56/56/56 62/59/62
f 62/59/62 56/56/56 63/60/63
f 56/56/56 55/55/55 63/60/63
f 55/55/55 52/52/52 63/60/63
f 52/52/52 51/51/51 63/60/63
f 51/51/51 50/50/50 63/60/63
f 50/50/50 49/48/48 63/60/63
f 63/60/63 49/48/48 62/59/62
f 61/52/61 60/55/60 64/60/64
f 60/55/60 59/56/59 64/60/64
f 64/60/64 59/56/59 65/59/65
f 59/56/59 66/49/66 65/59/65
f 66/49/66 67/48/67 65/59/65
f 65/59/65 67/48/67 64/60/64
f 27/20/26 36/37/36 26/21/27
f 36/37/36 53/53/53 26/21/27
f 26/21/27 53/53/53 68/61/68
f 68/61/68 53/53/53 69/62/69
f 53/53/53 54/54/54 69/62/69
f 69/62/69 54/54/54 70/53/70
f 54/54/54 61/52/61 70/53/70
f 70/53/70 61/52/61 71/37/71
f 71/37/71 61/52/61 72/51/72
f 61/52/61 64/60/64 72/51/72
f 72/51/72 64/60/64 73/50/73
f 64/60/64 67/48/67 73/50/73
f 73/50/73 67/48/67 74/42/74
f 67/48/67 66/49/66 74/42/74
f 66/49/66 75/63/75 74/42/74
f 74/42/74 75/63/75 76/43/76
f 75/63/75 77/64/77 76/43/76
f 76/43/76 77/64/77 78/65/78
f 23/18/25 26/21/27 79/66/79
f 26/21/27 68/61/68 79/66/79
f 79/66/79 68/61/68 80/67/80
f 68/61/68 81/68/81 80/67/80
f 80/67/80 81/68/81 82/61/82
f 82/61/82 81/68/81 83/69/83
f 81/68/81 68/61/68 83/69/83
f 68/61/68 69/62/69 83/69/83
f 83/69/83 69/62/69 82/61/82
f 69/62/69 70/53/70 82/61/82
f 82/61/82 70/53/70 84/21/84
f 70/53/70 71/37/71 84/21/84
f 84/21/84 71/37/71 85/20/85
f 71/37/71 86/22/86 85/20/85
f 85/20/85 86/22/86 87/16/87
f 86/22/86 88/23/88 87/16/87
f 87/16/87 88/23/88 6/19/6
f 88/23/88 7/24/7 6/19/6
f 24/17/24 23/18/25 89/70/89
f 89/70/89 23/18/25 90/71/90
f 23/18/25 79/66/79 90/71/90
f 79/66/79 80/67/80 90/71/90
f 90/71/90 80/67/80 91/66/91
f 80/67/80 82/61/82 91/66/91
f 82/61/82 84/21/84 91/66/91
f 91/66/91 84/21/84 92/18/92
f 84/21/84 85/20/85 92/18/92
f 85/20/85 87/16/87 92/18/92
f 92/18/92 87/16/87 93/17/93
f 87/16/87 6/19/6 93/17/93
f 6/19/6 5/72/5 93/17/93
f 93/17/93 5/72/5 94/73/94
f 5/72/5 1/74/3 94/73/94
f 1/74/3 3/72/1 94/73/94
f 94/73/94 3/72/1 24/17/24
f 3/72/1 4/19/4 24/17/24
f 91/66/91 92/18/92 90/71/90
f 90/71/90 92/18/92 89/70/89
f 92/18/92 93/17/93 89/70/89
f 93/17/93 94/73/94 89/70/89
f 89/70/89 94/73/94 24/17/24
f 7/24/7 88/23/88 10/25/10
f 88/23/88 95/26/95 10/25/10
f 10/25/10 95/26/95 11/27/11
f 95/26/95 96/28/96 11/27/11
f 11/27/11 96/28/96 16/29/16
f 96/28/96 97/30/97 16/29/16
f 16/29/16 97/30/97 15/31/15
f 97/30/97 98/32/98 15/31/15
f 98/32/98 99/33/99 15/31/15
f 15/31/15 99/33/99 14/34/14
f 14/34/14 99/33/99 13/35/12
f 99/33/99 35/36/35 13/35/12
f 98/32/98 97/30/97 100/40/100
f 97/30/97 96/28/96 100/40/100
f 100/40/100 96/28/96 101/39/101
f 96/28/96 95/26/95 101/39/101
f 101/39/101 95/26/95 102/38/102
f 95/26/95 88/23/88 102/38/102
f 88/23/88 86/22/86 102/38/102
f 86/22/86 71/37/71 102/38/102
f 71/37/71 72/51/72 102/38/102
f 102/38/102 72/51/72 101/39/101
f 72/51/72 73/50/73 101/39/101
f 101/39/101 73/50/73 100/40/100
f 73/50/73 74/42/74 100/40/100
f 100/40/100 74/42/74 103/41/103
f 74/42/74 76/43/76 103/41/103
f 103/41/103 76/43/76 43/44/43
f 76/43/76 47/45/47 43/44/43
f 43/44/43 47/45/47 45/46/45
f 99/33/99 104/75/104 35/36/35
f 35/36/35 104/75/104 34/33/34
f 34/33/34 104/75/104 40/41/40
f 40/41/40 104/75/104 43/44/43
f 43/44/43 104/75/104 103/41/103
f 104/75/104 99/33/99 103/41/103
f 103/41/103 99/33/99 100/40/100
f 99/33/99 98/32/98 100/40/100
f 76/43/76 78/65/78 47/45/47
f 78/65/78 105/76/105 47/45/47
f 47/45/47 105/76/105 46/47/46
f 105/76/105 106/77/106 46/47/46
f 46/47/46 106/77/106 58/58/58
f 106/77/106 107/78/107 58/58/58
f 58/58/58 107/78/107 59/56/59
f 107/78/107 108/79/108 59/56/59
f 59/56/59 108/79/108 66/49/66
f 66/49/66 108/79/108 75/63/75
f 108/79/108 109/80/109 75/63/75
f 75/63/75 109/80/109 77/64/77
f 77/64/77 109/80/109 110/81/110
f 110/81/110 109/80/109 107/78/107
f 109/80/109 108/79/108 107/78/107
f 107/78/107 106/77/106 110/81/110
f 106/77/106 111/82/111 110/81/110
f 110/81/110 111/82/111 77/64/77
f 77/64/77 111/82/111 78/65/78
f 111/82/111 106/77/106 78/65/78
f 78/65/78 106/77/106 112/83/112
f 106/77/106 105/76/105 112/83/112
f 112/83/112 105/76/105 78/65/78
f 41/42/41 113/63/113 48/49/49
f 113/63/113 114/79/114 48/49/49
f 48/49/49 114/79/114 56/56/56
f 114/79/114 115/78/115 56/56/56
f 56/56/56 115/78/115 58/58/58
f 115/78/115 116/77/116 58/58/58
f 58/58/58 116/77/116 46/47/46
f 116/77/116 117/76/117 46/47/46
f 46/47/46 117/76/117 44/45/44
f 117/76/117 118/65/118 44/45/44
f 44/45/44 118/65/118 42/43/42
f 118/65/118 119/64/119 42/43/42
f 119/64/119 113/63/113 42/43/42
f 42/43/42 113/63/113 41/42/41
f 119/64/119 118/65/118 120/82/120
f 118/65/118 116/77/116 120/82/120
f 120/82/120 116/77/116 121/81/121
f 116/77/116 115/78/115 121/81/121
f 121/81/121 115/78/115 122/80/122
f 115/78/115 114/79/114 122/80/122
f 114/79/114 113/63/113 122/80/122
f 113/63/113 119/64/119 122/80/122
f 122/80/122 119/64/119 121/81/121
f 119/64/119 120/82/120 121/81/121
f 117/76/117 116/77/116 123/83/123
f 116/77/116 118/65/118 123/83/123
f 123/83/123 118/65/118 117/76/117
